<?xml version="1.0" encoding="UTF-8" standalone="no"?>
<svg xmlns="http://www.w3.org/2000/svg" viewBox="0 0 4.2333332 4.2333332" height="16" width="16" version="1.1">
 <ellipse style="paint-order:normal" rx="2.1167" ry="2.1167" cy="2.1167" cx="2.1167" fill="#262626"/>
 <path opacity=".6" style="paint-order:normal" d="m8 0a8 8 0 0 0 -8 8 8 8 0 0 0 8 8 8 8 0 0 0 8 -8 8 8 0 0 0 -8 -8zm0.0176 1a6.9831 7 0 0 1 6.9824 7 6.9831 7 0 0 1 -6.9824 7 6.9831 7 0 0 1 -6.9844 -7 6.9831 7 0 0 1 6.9844 -7z" transform="scale(.26458)"/>
</svg>
